<svg xmlns="http://www.w3.org/2000/svg" version="1.1" xmlns:xlink="http://www.w3.org/1999/xlink" xmlns:svgjs="http://svgjs.dev/svgjs" width="1000" height="1000" viewBox="0 0 1000 1000"><rect width="1000" height="1000" fill="#ffffff"></rect><g transform="matrix(0.7,0,0,0.7,149.57576789756638,406.1151232718513)"><svg viewBox="0 0 396 106" data-background-color="#ffffff" preserveAspectRatio="xMidYMid meet" height="267" width="1000" xmlns="http://www.w3.org/2000/svg" xmlns:xlink="http://www.w3.org/1999/xlink"><g id="tight-bounds" transform="matrix(1,0,0,1,0.239994207090092,0.2466395568954738)"><svg viewBox="0 0 395.52 105.50672088620907" height="105.50672088620907" width="395.52"><g><svg viewBox="0 0 395.52 105.50672088620907" height="105.50672088620907" width="395.52"><g><svg viewBox="0 0 395.52 105.50672088620907" height="105.50672088620907" width="395.52"><g id="textblocktransform"><svg viewBox="0 0 395.52 105.50672088620907" height="105.50672088620907" width="395.52" id="textblock"><g><svg viewBox="0 0 395.52 105.50672088620907" height="105.50672088620907" width="395.52"><g transform="matrix(1,0,0,1,0,0)"><svg width="395.52" viewBox="1.350000023841858 -35.900001525878906 203.7371368408203 54.353126525878906" height="105.50672088620907" data-palette-color="#89939e"><path d="M29-26.8Q29.3-24.65 29.6-20.55L29.6-20.55 29.7-17.95Q29.7-10.7 31.6-5L31.6-5Q31.85-4.2 31.85-2.95L31.85-2.95Q31.85-2.25 31.75-1.05L31.75-1.05Q31.7-0.25 31.15 0.23 30.6 0.7 29.75 0.7L29.75 0.7Q29.65 0.7 29.2 0.6L29.2 0.6Q27.95 0.3 27.3-0.53 26.65-1.35 26.65-2.55L26.65-2.55Q26.65-2.95 26.7-3.15L26.7-3.15Q26.7-3.45 26.7-4L26.7-4Q26.7-4.9 26.6-5.65L26.6-5.65Q26.2-7.6 25.35-10.85L25.35-10.85Q25.05-12.2 24.1-12.2L24.1-12.2Q23.75-12.2 23.3-12.05L23.3-12.05Q21.75-11.6 20.58-11.2 19.4-10.8 18.5-10.55L18.5-10.55 16.1-9.85Q14.05-9.25 12.3-8.9L12.3-8.9Q10.45-8.5 9.6-6.85L9.6-6.85Q8.8-5.35 7.3-2.8L7.3-2.8Q6.35-1.1 4.8-1.1L4.8-1.1Q4.05-1.1 3.33-1.48 2.6-1.85 2.1-2.45L2.1-2.45Q1.35-3.3 1.35-4.1L1.35-4.1Q1.35-4.65 1.65-5.25L1.65-5.25 5.1-12.25Q10.8-23.85 11.9-26.15L11.9-26.15Q15.05-32.25 20.45-34.55L20.45-34.55Q21.6-35.1 22.8-35.1L22.8-35.1Q24.3-35.1 25.58-34.33 26.85-33.55 27.55-32.15L27.55-32.15Q28.55-30.1 29-26.8L29-26.8ZM12.85-14.15Q19.7-15.35 24.5-16.1L24.5-16.1Q24.4-20.9 24.23-23.68 24.05-26.45 23.5-29.25L23.5-29.25Q20.85-28.95 19.5-26.65L19.5-26.65Q17.15-22.95 15-19L15-19Q14.65-18.35 13.7-16.1L13.7-16.1 12.85-14.15ZM44.25-2.3Q45.25-3.5 45.7-4.2L45.7-4.2Q46.25-4.95 46.85-4.95L46.85-4.95Q47.45-4.95 47.75-4.2L47.75-4.2Q48.45-2.2 48.45-1.05L48.45-1.05Q48.45-0.55 48.4-0.3L48.4-0.3Q48.2 0.7 47.27 1.1 46.35 1.5 45.1 1.4L45.1 1.4Q44.65 1.4 43.57 1.4 42.5 1.4 41.72 1.1 40.95 0.8 40.35 0.1L40.35 0.1Q39.05-1.45 39.05-2.9L39.05-2.9Q39.05-14.6 38.95-20.5L38.95-20.5 38.9-29.3Q38.9-31.05 38.55-32.5L38.55-32.5Q38.5-32.75 38.5-33.1L38.5-33.1Q38.5-34.95 41-34.95L41-34.95Q42.65-34.95 43.77-33.88 44.9-32.8 44.8-31.05L44.8-31.05Q44.65-28.4 44.4-23.1L44.4-23.1 44.1-17.1Q43.7-8.6 43.55-4.35L43.55-4.35Q43.5-3.85 43.6-3.25 43.7-2.65 43.75-2.5L43.75-2.5 44.25-2.3ZM68.3-12.6Q68.15-9 67.8-7.15 67.45-5.3 66.42-3.63 65.4-1.95 63.1 0.25L63.1 0.25 64.84 1.2Q66.45 2.1 67.2 2.45L67.2 2.45Q69.45 3.5 70.59 5.13 71.75 6.75 71.75 8.7L71.75 8.7Q71.75 11.1 70.15 13.45L70.15 13.45Q68.45 15.95 65.9 17.18 63.35 18.4 60.45 18.45L60.45 18.45Q58.3 18.5 56.05 17.75L56.05 17.75Q55 17.4 53.95 16.23 52.9 15.05 52.27 13.6 51.65 12.15 51.7 11.05L51.7 11.05Q51.75 10.8 51.9 10.53 52.05 10.25 52.25 10.2L52.25 10.2Q52.3 10.15 52.45 10.15L52.45 10.15Q52.6 10.15 52.87 10.28 53.15 10.4 53.25 10.45L53.25 10.45Q53.5 10.55 53.6 10.9L53.6 10.9Q54.3 12.45 55.15 13.35 56 14.25 57.4 14.15L57.4 14.15Q62.55 13.8 64.45 11.3L64.45 11.3Q65.09 10.5 65.52 9.47 65.95 8.45 65.95 7.55L65.95 7.55Q65.95 6.25 65.32 5.65 64.7 5.05 63.4 4.8L63.4 4.8Q62 4.55 60.72 4.1 59.45 3.65 57.65 2.75L57.65 2.75Q56.75 2.3 56.4 1.95 56.05 1.6 56.05 1.1L56.05 1.1Q56.05 0.6 56.65-1.45L56.65-1.45Q56.75-1.75 55.72-2.45 54.7-3.15 53.95-3.6L53.95-3.6Q51.25-5.2 51.25-8.8L51.25-8.8Q51.25-9.8 51.4-10.7L51.4-10.7Q52.3-16.2 56.75-18.5L56.75-18.5Q57.8-19.05 58.95-19.05L58.95-19.05Q59.8-19.05 60.7-18.8 61.6-18.55 61.75-18.5L61.75-18.5 62.8-18.2Q63.55-18 64.25-18L64.25-18Q65.2-18 65.97-18.35 66.75-18.7 67.55-19.45L67.55-19.45Q68.7-20.4 70-20.4L70-20.4Q70.95-20.4 71.7-19.88 72.45-19.35 72.8-18.35L72.8-18.35Q72.9-17.95 72.9-17.7L72.9-17.7Q72.9-17.25 72.75-17L72.75-17Q72.59-16.8 71.9-15.7L71.9-15.7Q71.55-15.05 71.25-14.6 70.95-14.15 70.3-13.6L70.3-13.6Q69.84-13.35 69.34-13.23 68.84-13.1 68.57-13 68.3-12.9 68.3-12.6L68.3-12.6ZM57.8-13.35Q56.25-11.55 56.25-9.7L56.25-9.7Q56.25-8.4 57.07-7.23 57.9-6.05 59.6-5.2L59.6-5.2Q61.5-5.95 62.55-7.8 63.6-9.65 63.6-11.85L63.6-11.85Q63.6-13.2 63.2-14.3 62.8-15.4 61.6-16L61.6-16Q59.3-15.1 57.8-13.35L57.8-13.35ZM86.94-3.35Q85.39-2.4 83.39-2.4L83.39-2.4Q81.19-2.4 79.17-3.53 77.14-4.65 75.94-6.75 74.74-8.85 74.94-11.55L74.94-11.55 75.19-12.75Q75.49-14.55 75.69-15.4L75.69-15.4Q76.14-17.25 77.49-18 78.84-18.75 81.09-19.2L81.09-19.2Q82.54-19.5 83.94-19.5L83.94-19.5Q88.34-19.5 91.34-16.55L91.34-16.55Q92.94-14.95 92.94-12.65L92.94-12.65Q92.94-10.4 91.29-7.8L91.29-7.8Q89.39-4.85 86.94-3.35L86.94-3.35ZM82.74-16.95Q81.94-15 81.04-12.1L81.04-12.1 80.54-10.6 80.89-10.45Q80.89-10.1 80.92-9.38 80.94-8.65 81.09-8.15L81.09-8.15Q81.64-6.6 82.34-6.25L82.34-6.25Q82.64-6.1 83.22-6.4 83.79-6.7 84.24-7.1L84.24-7.1Q84.94-7.7 86.49-9.6L86.49-9.6Q87.64-10.9 87.64-12.7L87.64-12.7Q87.64-14.25 86.77-15.5 85.89-16.75 84.34-17.2L84.34-17.2Q84.19-17.25 83.79-17.25L83.79-17.25Q82.84-17.25 82.74-16.95L82.74-16.95ZM103.44-21.2Q103.59-20.7 103.49-19.65L103.49-19.65 102.89-13.75Q103.14-13.95 103.64-15.18 104.14-16.4 104.59-17.18 105.04-17.95 105.29-18.2L105.29-18.2Q107.64-20.45 110.59-20.9 113.54-21.35 117.09-21.3L117.09-21.3Q117.44-21.3 117.87-21.03 118.29-20.75 118.29-20.58 118.29-20.4 117.99-20.03 117.69-19.65 117.44-19.55L117.44-19.55Q114.44-18.55 112.17-17.25 109.89-15.95 108.24-13.85L108.24-13.85Q104.34-8.9 103.74-3.65L103.74-3.65Q103.59-2.25 102.89-1.78 102.19-1.3 100.94-1.3L100.94-1.3Q99.54-1.3 98.44-2.5 97.34-3.7 97.34-5.15L97.34-5.15Q97.39-10.45 97.39-21.05L97.39-21.05Q97.39-22.5 98.04-23.08 98.69-23.65 100.39-23.65L100.39-23.65Q101.64-23.65 102.52-22.95 103.39-22.25 103.44-21.2L103.44-21.2ZM123.49-23.3Q123.39-23 122.76-22.65 122.14-22.3 121.74-22L121.74-22 120.34-22.75Q118.29-23.85 117.54-24.5L117.54-24.5Q117.14-24.8 117.14-25.25L117.14-25.25Q117.14-25.55 117.36-25.78 117.59-26 118.04-26L118.04-26Q119.99-26 122.79-25L122.79-25Q123.09-24.95 123.34-24.33 123.59-23.7 123.49-23.3L123.49-23.3ZM118.99-14Q119.14-14.65 119.19-14.95 119.24-15.25 119.24-15.6L119.24-15.6Q119.24-16.3 119.66-16.7 120.09-17.1 121.29-17.1L121.29-17.1Q122.69-17.1 123.76-16.23 124.84-15.35 125.09-13.95L125.09-13.95Q125.24-13.25 125.29-12.4 125.34-11.55 125.34-11.3L125.34-11.3 126.04-2.75Q126.19-1.4 125.66-0.68 125.14 0.05 123.69 0.05L123.69 0.05Q122.44 0.05 121.56-0.65 120.69-1.35 120.49-2.45L120.49-2.45 119.19-13.05 118.99-14ZM129.49-18.65Q129.14-19.05 129.01-19.5 128.89-19.95 128.79-20.75L128.79-20.75Q129.24-21.8 130.44-21.8L130.44-21.8Q131.04-21.7 131.29-21.7L131.29-21.7Q132.29-21.7 132.54-22.3 132.79-22.9 132.79-23.7 132.79-24.5 132.79-24.95L132.79-24.95 132.94-27.95Q132.99-28.95 133.06-30.43 133.14-31.9 133.24-33.85L133.24-33.85Q133.29-34.9 133.76-35.4 134.24-35.9 135.09-35.9L135.09-35.9Q135.69-35.9 136.04-35.8L136.04-35.8Q138.09-35.35 138.79-34.5 139.49-33.65 139.74-31.95L139.74-31.95Q139.79-31.6 139.64-30.5L139.64-30.5 138.74-22.7Q138.69-22.4 138.59-21.98 138.49-21.55 138.49-21.35L138.49-21.35Q138.49-20.9 138.99-20.75 139.49-20.6 140.84-20.65L140.84-20.65Q143.14-21.15 144.34-21.3L144.34-21.3Q144.59-21.35 145.14-21.35L145.14-21.35Q145.74-21.35 145.94-21.2L145.94-21.2Q146.14-21.1 146.26-20.63 146.39-20.15 146.39-19.55L146.39-19.55Q146.39-19 146.26-18.55 146.14-18.1 145.94-18.05L145.94-18.05Q144.59-17.65 142.74-17.4L142.74-17.4Q140.54-17 139.49-16.7L139.49-16.7Q138.94-16.55 138.39-15.95 137.84-15.35 137.79-14.85L137.79-14.85Q137.69-12.4 137.64-9.85L137.64-9.85Q137.59-7.9 137.79-5.95L137.79-5.95Q137.94-4.3 138.44-3.58 138.94-2.85 139.94-2.85L139.94-2.85Q140.74-2.85 142.24-3.4L142.24-3.4Q143.04-3.75 143.64-3.75L143.64-3.75Q144.59-3.75 144.99-2.7L144.99-2.7Q145.14-2.35 145.14-2L145.14-2Q145.14-1.35 144.66-0.95 144.19-0.55 143.39-0.25L143.39-0.25Q141.89 0.3 140.34 0.35L140.34 0.35Q138.24 0.35 136.39-0.68 134.54-1.7 133.46-3.55 132.39-5.4 132.54-7.8L132.54-7.8Q132.59-8.75 132.59-10.8L132.59-10.8Q132.59-14.05 132.34-17.4L132.34-17.4Q132.29-17.7 131.99-17.82 131.69-17.95 130.99-18.1L130.99-18.1Q129.84-18.3 129.49-18.65L129.49-18.65ZM155.93-26.7Q155.98-21.85 156.21-18.73 156.43-15.6 157.28-12.1L157.28-12.1Q159.38-12.85 161.13-12.85L161.13-12.85Q164.08-12.85 166.23-11.1 168.38-9.35 169.13-6.75L169.13-6.75Q169.73-4.85 169.73-1.65L169.73-1.65 169.68 2.25Q169.68 2.6 169.28 3.05 168.88 3.5 168.48 3.6L168.48 3.6Q168.33 3.65 168.03 3.65L168.03 3.65Q166.88 3.65 165.63 2.53 164.38 1.4 164.33 0.3L164.33 0.3 164.23-2.3Q164.23-3.2 164.13-4.9L164.13-4.9Q164.03-6.65 163.73-7.4L163.73-7.4Q163.43-8.25 162.98-8.7 162.53-9.15 161.98-9.15L161.98-9.15Q161.58-9.15 161.11-8.8 160.63-8.45 160.28-7.85L160.28-7.85Q159.23-6.2 157.53-1.35L157.53-1.35Q156.98 0.4 155.58 0.4L155.58 0.4Q155.43 0.4 154.93 0.3L154.93 0.3Q154.63 0.2 153.78-0.03 152.93-0.25 152.46-0.75 151.98-1.25 151.98-2.2L151.98-2.2Q151.98-11.65 150.83-17.85L150.83-17.85Q150.28-20.95 150.28-25L150.28-25 150.28-28.35 150.28-30.1Q150.28-30.8 151.03-31.3 151.78-31.8 152.73-31.8L152.73-31.8Q153.53-31.8 154.08-31.45L154.08-31.45Q155.08-30.85 155.51-29.95 155.93-29.05 155.93-27.7L155.93-27.7 155.93-26.7ZM199.73-13.05Q199.63-14.95 198.13-15.85L198.13-15.85Q196.93-15.55 196.18-15.1 195.43-14.65 195.08-14.23 194.73-13.8 193.83-12.6L193.83-12.6Q193.53-12.2 193.21-11.5 192.88-10.8 192.83-10.65L192.83-10.65Q192.68-10.3 192.68-9.9L192.68-9.9Q192.68-9.6 192.81-8.97 192.93-8.35 192.88-8L192.88-8Q192.83-7.25 192.93-5.65L192.93-5.65 192.98-4.1Q192.98-3.4 192.93-3.05L192.93-3.05Q192.83-2.25 192.43-1.65 192.03-1.05 191.33-1.05L191.33-1.05Q191.08-1.05 190.68-1.2L190.68-1.2Q190.33-1.3 189.53-1.55 188.73-1.8 188.28-2.33 187.83-2.85 187.83-3.85L187.83-3.85Q187.83-6.45 187.33-11.65L187.33-11.65Q187.23-12.2 187.13-13.5L187.13-13.5Q187.08-14.05 186.63-14.35 186.18-14.65 185.53-14.65L185.53-14.65Q184.48-14.65 183.93-14.1L183.93-14.1Q181.63-12.8 180.58-11.15 179.53-9.5 179.53-6.9L179.53-6.9 179.58-5.2Q179.58-3.55 178.73-2.15L178.73-2.15Q178.48-1.7 177.71-1.38 176.93-1.05 176.38-1.15L176.38-1.15Q175.88-1.2 175.36-1.83 174.83-2.45 174.83-2.95L174.83-2.95Q174.68-7.15 174.68-11.3L174.68-11.3Q174.68-15.05 174.78-16.9L174.78-16.9Q174.83-17.85 175.43-18.4 176.03-18.95 176.88-18.95L176.88-18.95Q177.98-18.95 178.83-18.15L178.83-18.15Q179.28-17.3 179.58-16.93 179.88-16.55 180.23-16.55L180.23-16.55Q180.53-16.55 180.93-16.88 181.33-17.2 182.03-17.95L182.03-17.95Q183.68-19.75 185.48-19.75L185.48-19.75Q187.43-19.75 190.18-17.8L190.18-17.8Q190.38-17.65 190.73-17.38 191.08-17.1 191.33-17.1L191.33-17.1Q191.68-17.1 192.43-17.9L192.43-17.9Q195.23-20.5 199.53-20.75L199.53-20.75Q200.88-20.8 202.26-19.73 203.63-18.65 203.98-17.15L203.98-17.15Q204.58-14.6 204.83-11.15L204.83-11.15Q205.13-5.95 205.08-3.35L205.08-3.35Q205.03-2.15 204.43-1.48 203.83-0.8 202.88-0.8L202.88-0.8Q202.13-0.8 201.28-1.25L201.28-1.25Q200.93-1.4 200.63-1.8 200.33-2.2 200.33-2.5L200.33-2.5 200.03-7.8Q199.98-8.65 199.93-9.98 199.88-11.3 199.73-13.05L199.73-13.05Z" opacity="1" transform="matrix(1,0,0,1,0,0)" fill="#000000" class="wordmark-text-0" data-fill-palette-color="primary" id="text-0"></path></svg></g></svg></g></svg></g></svg></g><g></g></svg></g><defs></defs></svg><rect width="395.52" height="105.50672088620907" fill="none" stroke="none" visibility="hidden"></rect></g></svg></g></svg>